<svg width="137" height="29" viewBox="0 0 137 29" fill="none" xmlns="http://www.w3.org/2000/svg">
<path d="M20.8811 27.48C18.0544 28.1733 15.1611 28.52 12.2011 28.52C9.24109 28.52 6.96109 28.1067 5.36109 27.28C3.76109 26.4267 2.60109 25.0133 1.88109 23.04C1.18776 21.0667 0.841094 18.2267 0.841094 14.52C0.841094 9.21333 1.65443 5.58667 3.28109 3.64C4.93443 1.66667 8.06776 0.679999 12.6811 0.679999C14.6011 0.679999 16.8678 0.946665 19.4811 1.48L20.8811 1.76L20.6411 8.92C18.4544 8.65333 16.4278 8.52 14.5611 8.52C12.7211 8.52 11.5344 8.88 11.0011 9.6C10.4678 10.2933 10.2011 11.7467 10.2011 13.96C10.2011 16.1733 10.3211 17.7067 10.5611 18.56C10.8278 19.4133 11.2411 19.9867 11.8011 20.28C12.3611 20.5467 13.2678 20.68 14.5211 20.68L20.7611 20.44L20.8811 27.48ZM37.1692 28V18.64H31.9292V28H22.6492V1.2H31.9292V11.08H37.1692V1.2H46.4492V28H37.1692ZM60.5802 28H48.8602V1.2H60.1802C64.7935 1.2 68.1135 2.24 70.1402 4.32C72.1668 6.4 73.1802 9.73333 73.1802 14.32C73.1802 18.88 72.2068 22.3067 70.2602 24.6C68.3135 26.8667 65.0868 28 60.5802 28ZM63.8202 14.76C63.8202 12.36 63.5668 10.76 63.0602 9.96C62.5802 9.16 61.4868 8.76 59.7802 8.76H58.1402V20.44H59.7802C61.1668 20.44 62.1935 20.0933 62.8602 19.4C63.5002 18.7067 63.8202 17.16 63.8202 14.76ZM94.592 27.48C91.7654 28.1733 88.872 28.52 85.912 28.52C82.952 28.52 80.672 28.1067 79.072 27.28C77.472 26.4267 76.312 25.0133 75.592 23.04C74.8987 21.0667 74.552 18.2267 74.552 14.52C74.552 9.21333 75.3654 5.58667 76.992 3.64C78.6454 1.66667 81.7787 0.679999 86.392 0.679999C88.312 0.679999 90.5787 0.946665 93.192 1.48L94.592 1.76L94.352 8.92C92.1654 8.65333 90.1387 8.52 88.272 8.52C86.432 8.52 85.2454 8.88 84.712 9.6C84.1787 10.2933 83.912 11.7467 83.912 13.96C83.912 16.1733 84.032 17.7067 84.272 18.56C84.5387 19.4133 84.952 19.9867 85.512 20.28C86.072 20.5467 86.9787 20.68 88.232 20.68L94.472 20.44L94.592 27.48ZM95.5202 8.76V1.2H115.52V8.76H110.32V28H101.04V8.76H95.5202ZM136.311 27.48C133.484 28.1733 130.591 28.52 127.631 28.52C124.671 28.52 122.391 28.1067 120.791 27.28C119.191 26.4267 118.031 25.0133 117.311 23.04C116.617 21.0667 116.271 18.2267 116.271 14.52C116.271 9.21333 117.084 5.58667 118.711 3.64C120.364 1.66667 123.497 0.679999 128.111 0.679999C130.031 0.679999 132.297 0.946665 134.911 1.48L136.311 1.76L136.071 8.92C133.884 8.65333 131.857 8.52 129.991 8.52C128.151 8.52 126.964 8.88 126.431 9.6C125.897 10.2933 125.631 11.7467 125.631 13.96C125.631 16.1733 125.751 17.7067 125.991 18.56C126.257 19.4133 126.671 19.9867 127.231 20.28C127.791 20.5467 128.697 20.68 129.951 20.68L136.191 20.44L136.311 27.48Z" fill="white"/>
</svg>
