<svg width="136" height="29" viewBox="0 0 136 29" fill="none" xmlns="http://www.w3.org/2000/svg">
<path d="M20.3811 27.48C17.5544 28.1733 14.6611 28.52 11.7011 28.52C8.74109 28.52 6.46109 28.1067 4.86109 27.28C3.26109 26.4267 2.10109 25.0133 1.38109 23.04C0.68776 21.0667 0.341094 18.2267 0.341094 14.52C0.341094 9.21333 1.15443 5.58667 2.78109 3.64C4.43443 1.66667 7.56776 0.679999 12.1811 0.679999C14.1011 0.679999 16.3678 0.946665 18.9811 1.48L20.3811 1.76L20.1411 8.92C17.9544 8.65333 15.9278 8.52 14.0611 8.52C12.2211 8.52 11.0344 8.88 10.5011 9.6C9.96776 10.2933 9.70109 11.7467 9.70109 13.96C9.70109 16.1733 9.82109 17.7067 10.0611 18.56C10.3278 19.4133 10.7411 19.9867 11.3011 20.28C11.8611 20.5467 12.7678 20.68 14.0211 20.68L20.2611 20.44L20.3811 27.48ZM36.6692 28V18.64H31.4292V28H22.1492V1.2H31.4292V11.08H36.6692V1.2H45.9492V28H36.6692ZM60.0802 28H48.3602V1.2H59.6802C64.2935 1.2 67.6135 2.24 69.6402 4.32C71.6668 6.4 72.6802 9.73333 72.6802 14.32C72.6802 18.88 71.7068 22.3067 69.7602 24.6C67.8135 26.8667 64.5868 28 60.0802 28ZM63.3202 14.76C63.3202 12.36 63.0668 10.76 62.5602 9.96C62.0802 9.16 60.9868 8.76 59.2802 8.76H57.6402V20.44H59.2802C60.6668 20.44 61.6935 20.0933 62.3602 19.4C63.0002 18.7067 63.3202 17.16 63.3202 14.76ZM94.092 27.48C91.2654 28.1733 88.372 28.52 85.412 28.52C82.452 28.52 80.172 28.1067 78.572 27.28C76.972 26.4267 75.812 25.0133 75.092 23.04C74.3987 21.0667 74.052 18.2267 74.052 14.52C74.052 9.21333 74.8654 5.58667 76.492 3.64C78.1454 1.66667 81.2787 0.679999 85.892 0.679999C87.812 0.679999 90.0787 0.946665 92.692 1.48L94.092 1.76L93.852 8.92C91.6654 8.65333 89.6387 8.52 87.772 8.52C85.932 8.52 84.7454 8.88 84.212 9.6C83.6787 10.2933 83.412 11.7467 83.412 13.96C83.412 16.1733 83.532 17.7067 83.772 18.56C84.0387 19.4133 84.452 19.9867 85.012 20.28C85.572 20.5467 86.4787 20.68 87.732 20.68L93.972 20.44L94.092 27.48ZM95.0202 8.76V1.2H115.02V8.76H109.82V28H100.54V8.76H95.0202ZM135.811 27.48C132.984 28.1733 130.091 28.52 127.131 28.52C124.171 28.52 121.891 28.1067 120.291 27.28C118.691 26.4267 117.531 25.0133 116.811 23.04C116.117 21.0667 115.771 18.2267 115.771 14.52C115.771 9.21333 116.584 5.58667 118.211 3.64C119.864 1.66667 122.997 0.679999 127.611 0.679999C129.531 0.679999 131.797 0.946665 134.411 1.48L135.811 1.76L135.571 8.92C133.384 8.65333 131.357 8.52 129.491 8.52C127.651 8.52 126.464 8.88 125.931 9.6C125.397 10.2933 125.131 11.7467 125.131 13.96C125.131 16.1733 125.251 17.7067 125.491 18.56C125.757 19.4133 126.171 19.9867 126.731 20.28C127.291 20.5467 128.197 20.68 129.451 20.68L135.691 20.44L135.811 27.48Z" fill="white"/>
</svg>
