<svg width="109" height="59" viewBox="0 0 109 59" fill="none" xmlns="http://www.w3.org/2000/svg">
<rect x="0.5" y="0.5" width="108" height="58" rx="4.5" fill="#020659" stroke="#F25C05"/>
<path d="M47.9882 10.684C47.9962 11.052 48.0922 11.32 48.2762 11.488C48.4682 11.648 48.7402 11.728 49.0922 11.728C49.8362 11.728 50.5002 11.704 51.0842 11.656L51.4202 11.62L51.4442 12.808C50.5242 13.032 49.6922 13.144 48.9482 13.144C48.0442 13.144 47.3882 12.904 46.9802 12.424C46.5722 11.944 46.3682 11.164 46.3682 10.084C46.3682 7.932 47.2522 6.856 49.0202 6.856C50.7642 6.856 51.6362 7.76 51.6362 9.568L51.5162 10.684H47.9882ZM50.0522 9.46C50.0522 8.98 49.9762 8.648 49.8242 8.464C49.6722 8.272 49.4042 8.176 49.0202 8.176C48.6442 8.176 48.3762 8.276 48.2162 8.476C48.0642 8.668 47.9842 8.996 47.9762 9.46H50.0522ZM50.8652 18.368H49.3892V20.828C49.3892 21.068 49.3932 21.24 49.4012 21.344C49.4172 21.44 49.4612 21.524 49.5332 21.596C49.6132 21.668 49.7332 21.704 49.8932 21.704L50.8052 21.68L50.8772 22.964C50.3412 23.084 49.9332 23.144 49.6532 23.144C48.9332 23.144 48.4412 22.984 48.1772 22.664C47.9132 22.336 47.7812 21.736 47.7812 20.864V18.368H47.0732V17H47.7812V15.332H49.3892V17H50.8652V18.368ZM50.8652 28.368H49.3892V30.828C49.3892 31.068 49.3932 31.24 49.4012 31.344C49.4172 31.44 49.4612 31.524 49.5332 31.596C49.6132 31.668 49.7332 31.704 49.8932 31.704L50.8052 31.68L50.8772 32.964C50.3412 33.084 49.9332 33.144 49.6532 33.144C48.9332 33.144 48.4412 32.984 48.1772 32.664C47.9132 32.336 47.7812 31.736 47.7812 30.864V28.368H47.0732V27H47.7812V25.332H49.3892V27H50.8652V28.368ZM46.8574 37.684C47.2814 37.132 47.9894 36.856 48.9814 36.856C49.9734 36.856 50.6814 37.132 51.1054 37.684C51.5294 38.228 51.7414 38.996 51.7414 39.988C51.7414 42.092 50.8214 43.144 48.9814 43.144C47.1414 43.144 46.2214 42.092 46.2214 39.988C46.2214 38.996 46.4334 38.228 46.8574 37.684ZM48.0934 41.344C48.2614 41.632 48.5574 41.776 48.9814 41.776C49.4054 41.776 49.6974 41.632 49.8574 41.344C50.0254 41.056 50.1094 40.604 50.1094 39.988C50.1094 39.372 50.0254 38.924 49.8574 38.644C49.6974 38.364 49.4054 38.224 48.9814 38.224C48.5574 38.224 48.2614 38.364 48.0934 38.644C47.9334 38.924 47.8534 39.372 47.8534 39.988C47.8534 40.604 47.9334 41.056 48.0934 41.344Z" fill="#F25C05"/>
<path d="M67.8332 6.856C68.2492 6.856 68.7812 6.92 69.4292 7.048L69.7532 7.12L69.7052 8.392C69.0732 8.328 68.6052 8.296 68.3012 8.296C67.7492 8.296 67.3812 8.416 67.1972 8.656C67.0212 8.888 66.9332 9.332 66.9332 9.988C66.9332 10.644 67.0212 11.096 67.1972 11.344C67.3812 11.584 67.7532 11.704 68.3132 11.704L69.7052 11.608L69.7532 12.892C68.8972 13.06 68.2452 13.144 67.7972 13.144C66.9092 13.144 66.2692 12.896 65.8772 12.4C65.4932 11.896 65.3012 11.092 65.3012 9.988C65.3012 8.884 65.5012 8.088 65.9012 7.6C66.3012 7.104 66.9452 6.856 67.8332 6.856ZM66.5585 23H64.9505V14.6H66.5585V17.288C67.1105 17 67.6065 16.856 68.0465 16.856C68.8465 16.856 69.3985 17.092 69.7025 17.564C70.0065 18.036 70.1585 18.764 70.1585 19.748V23H68.5505V19.784C68.5505 19.28 68.4905 18.908 68.3705 18.668C68.2505 18.42 68.0105 18.296 67.6505 18.296C67.3385 18.296 67.0265 18.344 66.7145 18.44L66.5585 18.488V23ZM66.5283 30.684C66.5363 31.052 66.6323 31.32 66.8163 31.488C67.0083 31.648 67.2803 31.728 67.6323 31.728C68.3763 31.728 69.0403 31.704 69.6243 31.656L69.9603 31.62L69.9843 32.808C69.0643 33.032 68.2323 33.144 67.4883 33.144C66.5843 33.144 65.9283 32.904 65.5203 32.424C65.1123 31.944 64.9083 31.164 64.9083 30.084C64.9083 27.932 65.7923 26.856 67.5603 26.856C69.3043 26.856 70.1763 27.76 70.1763 29.568L70.0563 30.684H66.5283ZM68.5923 29.46C68.5923 28.98 68.5163 28.648 68.3643 28.464C68.2123 28.272 67.9443 28.176 67.5603 28.176C67.1843 28.176 66.9163 28.276 66.7563 28.476C66.6043 28.668 66.5243 28.996 66.5163 29.46H68.5923Z" fill="#F25C05"/>
<path d="M80.8351 15V9H82.4431V15H80.8351ZM80.8351 8.232V6.6H82.4431V8.232H80.8351Z" fill="#F25C05"/>
<path d="M96.1266 15H94.5186V6.6H96.1266V9.288C96.6786 9 97.1746 8.856 97.6146 8.856C98.4146 8.856 98.9666 9.092 99.2707 9.564C99.5746 10.036 99.7266 10.764 99.7266 11.748V15H98.1186V11.784C98.1186 11.28 98.0586 10.908 97.9386 10.668C97.8186 10.42 97.5786 10.296 97.2186 10.296C96.9066 10.296 96.5946 10.344 96.2826 10.44L96.1266 10.488V15ZM101.151 15V9H102.759V15H101.151ZM101.151 8.232V6.6H102.759V8.232H101.151ZM100.913 20.872V23.368C100.929 23.56 100.961 23.696 101.009 23.776C101.057 23.848 101.157 23.9 101.309 23.932L101.261 25.144C100.853 25.144 100.525 25.116 100.277 25.06C100.037 25.004 99.7935 24.892 99.5455 24.724C98.9695 25.004 98.3815 25.144 97.7815 25.144C96.5415 25.144 95.9215 24.488 95.9215 23.176C95.9215 22.536 96.0935 22.084 96.4375 21.82C96.7815 21.548 97.3095 21.388 98.0215 21.34L99.3055 21.244V20.872C99.3055 20.624 99.2495 20.456 99.1375 20.368C99.0255 20.272 98.8455 20.224 98.5975 20.224L96.3415 20.32L96.2935 19.204C97.1495 18.972 97.9615 18.856 98.7295 18.856C99.5055 18.856 100.061 19.016 100.397 19.336C100.741 19.656 100.913 20.168 100.913 20.872ZM98.2135 22.456C97.7655 22.496 97.5415 22.736 97.5415 23.176C97.5415 23.616 97.7375 23.836 98.1295 23.836C98.4335 23.836 98.7655 23.788 99.1255 23.692L99.3055 23.644V22.36L98.2135 22.456ZM95.9567 35H94.3487V29H95.9447V29.336C96.4967 29.016 96.9687 28.856 97.3607 28.856C98.0087 28.856 98.5087 29.044 98.8607 29.42C99.5967 29.044 100.269 28.856 100.877 28.856C101.669 28.856 102.217 29.088 102.521 29.552C102.833 30.008 102.989 30.74 102.989 31.748V35H101.381V31.796C101.381 31.284 101.325 30.908 101.213 30.668C101.101 30.42 100.877 30.296 100.541 30.296C100.285 30.296 99.9727 30.352 99.6047 30.464L99.4247 30.524C99.4567 31.124 99.4727 31.58 99.4727 31.892V35H97.8647V31.916C97.8647 31.324 97.8127 30.908 97.7087 30.668C97.6047 30.42 97.3767 30.296 97.0247 30.296C96.7127 30.296 96.4047 30.352 96.1007 30.464L95.9567 30.512V35ZM97.8351 45V39H99.4431V45H97.8351ZM97.8351 38.232V36.6H99.4431V38.232H97.8351Z" fill="#F25C05"/>
<path d="M10.0413 7.684C10.4653 7.132 11.1733 6.856 12.1653 6.856C13.1573 6.856 13.8653 7.132 14.2893 7.684C14.7133 8.228 14.9253 8.996 14.9253 9.988C14.9253 12.092 14.0053 13.144 12.1653 13.144C10.3253 13.144 9.40532 12.092 9.40532 9.988C9.40532 8.996 9.61732 8.228 10.0413 7.684ZM11.2773 11.344C11.4453 11.632 11.7413 11.776 12.1653 11.776C12.5893 11.776 12.8813 11.632 13.0413 11.344C13.2093 11.056 13.2933 10.604 13.2933 9.988C13.2933 9.372 13.2093 8.924 13.0413 8.644C12.8813 8.364 12.5893 8.224 12.1653 8.224C11.7413 8.224 11.4453 8.364 11.2773 8.644C11.1173 8.924 11.0373 9.372 11.0373 9.988C11.0373 10.604 11.1173 11.056 11.2773 11.344ZM9.48548 23H7.87748V17H9.47348V17.336C10.0255 17.016 10.4975 16.856 10.8895 16.856C11.5375 16.856 12.0375 17.044 12.3895 17.42C13.1255 17.044 13.7975 16.856 14.4055 16.856C15.1975 16.856 15.7455 17.088 16.0495 17.552C16.3615 18.008 16.5175 18.74 16.5175 19.748V23H14.9095V19.796C14.9095 19.284 14.8535 18.908 14.7415 18.668C14.6295 18.42 14.4055 18.296 14.0695 18.296C13.8135 18.296 13.5015 18.352 13.1335 18.464L12.9535 18.524C12.9855 19.124 13.0015 19.58 13.0015 19.892V23H11.3935V19.916C11.3935 19.324 11.3415 18.908 11.2375 18.668C11.1335 18.42 10.9055 18.296 10.5535 18.296C10.2415 18.296 9.93348 18.352 9.62948 18.464L9.48548 18.512V23ZM11.1721 30.684C11.1801 31.052 11.2761 31.32 11.4601 31.488C11.6521 31.648 11.9241 31.728 12.2761 31.728C13.0201 31.728 13.6841 31.704 14.2681 31.656L14.6041 31.62L14.6281 32.808C13.7081 33.032 12.8761 33.144 12.1321 33.144C11.2281 33.144 10.5721 32.904 10.1641 32.424C9.75608 31.944 9.55208 31.164 9.55208 30.084C9.55208 27.932 10.4361 26.856 12.2041 26.856C13.9481 26.856 14.8201 27.76 14.8201 29.568L14.7001 30.684H11.1721ZM13.2361 29.46C13.2361 28.98 13.1601 28.648 13.0081 28.464C12.8561 28.272 12.5881 28.176 12.2041 28.176C11.8281 28.176 11.5601 28.276 11.4001 28.476C11.2481 28.668 11.1681 28.996 11.1601 29.46H13.2361Z" fill="#F25C05"/>
<path d="M31.2238 8.872V11.368C31.2398 11.56 31.2718 11.696 31.3198 11.776C31.3678 11.848 31.4678 11.9 31.6198 11.932L31.5718 13.144C31.1638 13.144 30.8358 13.116 30.5878 13.06C30.3478 13.004 30.1038 12.892 29.8558 12.724C29.2798 13.004 28.6918 13.144 28.0918 13.144C26.8518 13.144 26.2318 12.488 26.2318 11.176C26.2318 10.536 26.4038 10.084 26.7478 9.82C27.0918 9.548 27.6198 9.388 28.3318 9.34L29.6158 9.244V8.872C29.6158 8.624 29.5598 8.456 29.4478 8.368C29.3358 8.272 29.1558 8.224 28.9078 8.224L26.6518 8.32L26.6038 7.204C27.4598 6.972 28.2718 6.856 29.0398 6.856C29.8158 6.856 30.3718 7.016 30.7078 7.336C31.0518 7.656 31.2238 8.168 31.2238 8.872ZM28.5238 10.456C28.0758 10.496 27.8518 10.736 27.8518 11.176C27.8518 11.616 28.0478 11.836 28.4398 11.836C28.7438 11.836 29.0758 11.788 29.4358 11.692L29.6158 11.644V10.36L28.5238 10.456ZM28.1454 23V17H29.7534V23H28.1454ZM28.1454 16.232V14.6H29.7534V16.232H28.1454Z" fill="#F25C05"/>
</svg>
